<svg viewBox="0 0 24 24" xmlns="http://www.w3.org/2000/svg" fill="none"><path d="M20.5042 3.39014C20.3049 3.20459 20.0068 3.14453 19.7424 3.26221L3.00219 10.6914L2.88549 10.7505C2.36229 11.0542 2.1411 11.7095 2.39208 12.2749C2.51366 12.5488 2.73314 12.7671 3.0078 12.8872L6.89574 14.5889L6.9934 14.6235C7.32274 14.7129 7.67675 14.5503 7.81762 14.228L7.85204 14.1304C7.94164 13.8013 7.7788 13.4473 7.45702 13.3062L3.98412 11.7866L16.8469 6.07861L8.62523 14.3892L8.62523 20.1421L8.63183 20.2368C8.67797 20.5786 8.97094 20.8418 9.32543 20.8418L9.4204 20.8354C9.76195 20.7891 10.0254 20.4961 10.0254 20.1421L10.0251 15.8096L15.7817 18.5854L15.8889 18.6309L16 18.666C16.6414 18.833 17.2969 18.4487 17.4641 17.8076L20.9482 4.45264L20.9719 4.3291C21.0076 4.03906 20.908 3.74609 20.697 3.5376C20.6379 3.479 20.573 3.42969 20.5042 3.39014ZM10.499 14.4834L19.1699 5.71924L16.1699 17.2183L10.499 14.4834Z" fill="currentColor" fill-rule="evenodd" /></svg>
