<svg viewBox="0 0 49.5488 49.5483" xmlns="http://www.w3.org/2000/svg" xmlns:xlink="http://www.w3.org/1999/xlink" width="49.548828" height="49.548340" fill="none" customFrame="#000000">
	<g id="Skill Hub-首页图标">
		<rect id="矩形备份 12" width="48.000000" height="48.000000" x="0.774414" y="0.774170" stroke="rgb(151,151,151)" stroke-opacity="0" stroke-width="1.548387" />
		<g id="编组 88">
			<g id="编组" opacity="0.200000003">
				<path id="减去顶层" d="M7.82319 4.77417L41.3643 4.77417C43.0474 4.77417 44.4131 6.13923 44.4131 7.82326L44.4131 41.364C44.4131 43.0477 43.0474 44.4131 41.3643 44.4131L7.82319 44.4131C6.14009 44.4131 4.77441 43.0477 4.77441 41.364L4.77441 7.82326C4.77441 6.13923 6.14009 4.77417 7.82319 4.77417Z" fill="rgb(0,47,167)" fill-rule="evenodd" />
			</g>
			<path id="减去顶层" />
		</g>
		<path id="矢量 26" d="M22.6783 10.7742C23.2915 10.774 23.8948 10.9291 24.432 11.2248C24.9692 11.5206 25.4228 11.9474 25.7506 12.4657C26.0785 12.9839 26.2698 13.5767 26.307 14.1888C26.3441 14.8009 26.2257 15.4124 25.9629 15.9665L30.4667 15.9665C31.0136 15.9665 31.5508 16.1104 32.0244 16.3839C32.498 16.6573 32.8913 17.0506 33.1647 17.5242C33.4382 17.9978 33.5821 18.535 33.5821 19.0819L33.5821 23.5857C34.2163 23.2854 34.9238 23.175 35.6193 23.268C36.3148 23.361 36.9685 23.6533 37.5015 24.1096C38.0345 24.566 38.424 25.1668 38.623 25.8397C38.822 26.5125 38.822 27.2286 38.623 27.9015C38.424 28.5743 38.0345 29.1752 37.5015 29.6315C36.9685 30.0879 36.3148 30.3802 35.6193 30.4732C34.9238 30.5661 34.2163 30.4558 33.5821 30.1555L33.5821 34.6588C33.5821 35.2057 33.4382 35.7429 33.1647 36.2165C32.8913 36.6901 32.498 37.0834 32.0244 37.3568C31.5508 37.6302 31.0136 37.7742 30.4667 37.7742L25.9629 37.7742C26.2634 37.14 26.3738 36.4324 26.2809 35.7369C26.188 35.0413 25.8957 34.3875 25.4394 33.8545C24.983 33.3214 24.3821 32.9318 23.7092 32.7327C23.0363 32.5337 22.3202 32.5337 21.6473 32.7327C20.9744 32.9318 20.3735 33.3214 19.9171 33.8545C19.4608 34.3875 19.1685 35.0413 19.0756 35.7369C18.9827 36.4324 19.0932 37.14 19.3936 37.7742L14.8898 37.7742C14.3429 37.7742 13.8057 37.6302 13.3321 37.3568C12.8585 37.0834 12.4652 36.6901 12.1918 36.2165C11.9184 35.7429 11.7744 35.2057 11.7744 34.6588L11.7744 30.155C12.4086 30.4553 13.1161 30.5656 13.8116 30.4726C14.5071 30.3797 15.1608 30.0874 15.6938 29.631C16.2268 29.1747 16.6163 28.5738 16.8153 27.901C17.0143 27.2281 17.0143 26.512 16.8153 25.8392C16.6163 25.1663 16.2268 24.5654 15.6938 24.1091C15.1608 23.6528 14.5071 23.3605 13.8116 23.2675C13.1161 23.1745 12.4086 23.2848 11.7744 23.5852L11.7744 19.0819C11.7744 18.535 11.9184 17.9978 12.1918 17.5242C12.4652 17.0506 12.8585 16.6573 13.3321 16.3839C13.8057 16.1104 14.3429 15.9665 14.8898 15.9665L19.3936 15.9665C19.1308 15.4124 19.0124 14.8009 19.0496 14.1888C19.0867 13.5767 19.2781 12.9839 19.6059 12.4657C19.9337 11.9474 20.3874 11.5206 20.9246 11.2248C21.4617 10.9291 22.065 10.774 22.6783 10.7742ZM27.5871 19.127C27.4823 19.0856 27.3684 19.0725 27.2569 19.0891C27.1454 19.1057 27.0403 19.1513 26.952 19.2214C26.8638 19.2915 26.7956 19.3836 26.7542 19.4884L26.2916 20.6619C26.2054 20.8794 26.0335 21.0513 25.8155 21.1375L24.6425 21.5996C24.5225 21.6467 24.4194 21.7289 24.3468 21.8355C24.2741 21.9421 24.2353 22.068 24.2353 22.197C24.2353 22.3259 24.2741 22.4519 24.3468 22.5585C24.4194 22.665 24.5225 22.7472 24.6425 22.7944L25.816 23.257C26.0335 23.3432 26.2054 23.5151 26.2916 23.7331L26.7537 24.9061C26.8008 25.0261 26.883 25.1292 26.9896 25.2018C27.0961 25.2744 27.2221 25.3133 27.3511 25.3133C27.48 25.3133 27.606 25.2744 27.7126 25.2018C27.8191 25.1292 27.9013 25.0261 27.9485 24.9061L28.4111 23.7326C28.4973 23.5151 28.6691 23.3432 28.8872 23.257L30.0602 22.7949C30.1802 22.7478 30.2833 22.6656 30.3559 22.559C30.4285 22.4524 30.4674 22.3265 30.4674 22.1975C30.4674 22.0685 30.4285 21.9426 30.3559 21.836C30.2833 21.7295 30.1802 21.6473 30.0602 21.6001L28.8867 21.1375C28.779 21.095 28.6813 21.0307 28.5994 20.9488C28.5176 20.8669 28.4535 20.7691 28.4111 20.6614L27.949 19.4884C27.9166 19.4066 27.8678 19.3323 27.8056 19.2701C27.7433 19.208 27.6689 19.1592 27.5871 19.127L27.5871 19.127Z" fill="rgb(0,47,167)" fill-rule="nonzero" />
	</g>
</svg>
