<svg viewBox="0 0 20 20" xmlns="http://www.w3.org/2000/svg" fill="none">
  <path d="M13.8445 2.88168C12.6735 2.24773 11.3604 1.91122 9.99992 1.91122C5.53255 1.91122 1.91113 5.53263 1.91113 10C1.91113 14.4673 5.53255 18.0888 9.99992 18.0888C14.4673 18.0888 18.0889 14.4673 18.0889 10C18.0889 7.99113 17.353 6.09538 16.0447 4.62483C15.8306 4.38436 15.4617 4.36279 15.2211 4.57683C14.9804 4.79126 14.959 5.15991 15.1731 5.40039C16.2933 6.65934 16.9221 8.28003 16.9221 10C16.9221 13.8233 13.8229 16.9222 9.99992 16.9222C6.17688 16.9222 3.07772 13.8233 3.07772 10C3.07772 6.17717 6.17688 3.0778 9.99992 3.0778C11.1653 3.0778 12.2878 3.36548 13.2893 3.90788C13.5727 4.06088 13.9268 3.95548 14.0799 3.67228C14.2333 3.38908 14.1279 3.03508 13.8445 2.88168ZM10.0003 4.72331C10.2957 4.72331 10.5397 4.94263 10.5783 5.22746L10.5836 5.3064L10.5836 10.2865L7.87833 12.8259C7.64355 13.0465 7.27429 13.0347 7.05395 12.7999C6.85538 12.5883 6.84501 12.2685 7.01611 12.0455L7.07999 11.9755L9.41658 9.78108L9.417 5.3064C9.417 5.01139 9.63633 4.76725 9.92117 4.7286L10.0003 4.72331Z" fill="currentColor" fill-rule="evenodd" />
</svg>
